<?xml version="1.0" encoding="UTF-8" standalone="no"?>
<svg width="137px" height="89px" viewBox="0 0 137 89" version="1.1" xmlns="http://www.w3.org/2000/svg" xmlns:xlink="http://www.w3.org/1999/xlink">
    <!-- Generator: Sketch 46.2 (44496) - http://www.bohemiancoding.com/sketch -->
    <title>pokus1</title>
    <desc>Created with Sketch.</desc>
    <defs>
        <linearGradient x1="-101.22%" y1="50.308715%" x2="20.732%" y2="58.029356%" id="linearGradient-1">
            <stop stop-color="#FFFFFF" stop-opacity="0.5" offset="0%"></stop>
            <stop stop-color="#FFFFFF" stop-opacity="0.25" offset="100%"></stop>
        </linearGradient>
    </defs>
    <g id="Page-1" stroke="none" stroke-width="1" fill="none" fill-rule="evenodd">
        <polygon id="Shape" stroke="#0062A2" stroke-width="0.5" fill="#0062A2" fill-rule="nonzero" transform="translate(32.238864, 56.915920) rotate(16.000000) translate(-32.238864, -56.915920) " points="26.5016635 82.7095711 7.13730174 64.8206725 12.8745025 39.0270217 37.976065 31.1222695 57.3404267 49.011168 50.7728389 75.7499235"></polygon>
        <path d="M38.6419557,30.3332511 C38.6419557,30.3332511 14.4856311,36.7990011 14.4856311,37.9533719 C14.4856311,39.1077428 8.89401867,60.1211117 9.11765028,62.1994037 C9.11765028,63.1230701 25.4456354,78.8253146 27.4587309,78.8253146 C19.6303913,59.8902376 15.3805686,36.7990011 38.6423668,30.3332511 L38.6419557,30.3332511 Z" id="Shape" fill="url(#linearGradient-1)" fill-rule="nonzero" transform="translate(23.876742, 54.579283) rotate(16.000000) translate(-23.876742, -54.579283) "></path>
        <polygon id="Shape" stroke="#0062A2" stroke-width="0.5" fill="#0062A2" fill-rule="nonzero" transform="translate(71.238864, 32.915920) rotate(16.000000) translate(-71.238864, -32.915920) " points="65.5016635 58.7095711 46.1373017 40.8206725 51.8745025 15.0270217 76.976065 7.12226948 96.3404267 25.011168 89.7728389 51.7499235"></polygon>
        <path d="M77.6419557,6.33325113 C77.6419557,6.33325113 53.4856311,12.7990011 53.4856311,13.9533719 C53.4856311,15.1077428 47.8940187,36.1211117 48.1176503,38.1994037 C48.1176503,39.1230701 64.4456354,54.8253146 66.4587309,54.8253146 C58.6303913,35.8902376 54.3805686,12.7990011 77.6423668,6.33325113 L77.6419557,6.33325113 Z" id="Shape" fill="url(#linearGradient-1)" fill-rule="nonzero" transform="translate(62.876742, 30.579283) rotate(16.000000) translate(-62.876742, -30.579283) "></path>
        <text id="Honeypot" font-family="HemiHeadRg-BoldItalic, Hemi Head" font-size="13" font-style="italic" font-weight="bold" fill="#5A5A5A">
            <tspan x="58" y="67.2025434">Honeypot</tspan>
        </text>
        <text id="as-a-Service" font-family="HemiHeadRg-BoldItalic, Hemi Head" font-size="13" font-style="italic" font-weight="bold" fill="#5A5A5A">
            <tspan x="50" y="80">as a Service</tspan>
        </text>
        <polygon id="H" stroke="#0062A2" stroke-width="0.5" fill="#FFFFFF" points="46.5760709 73.2025434 38.9423929 73.2025434 41.9054653 59.140505 28.5967504 59.140505 25.633678 73.2025434 18 73.2025434 25.1816839 39.2025434 32.8153619 39.2025434 29.9527326 52.7623662 43.2614476 52.7623662 46.1240768 39.2025434 53.7577548 39.2025434"></polygon>
        <path d="M50.0234887,51.2025434 L52.0906186,44.5732968 L71.5361891,44.5732968 C72.1388509,44.5732968 72.5824703,44.4561143 72.8670606,44.2217458 C73.1516509,43.9873773 73.3609053,43.5521281 73.4948301,42.9159851 L74.4992614,38.1951579 C74.5327427,38.0612331 74.549483,37.8770892 74.549483,37.6427207 C74.549483,37.0400589 74.1142338,36.7387325 73.2437223,36.7387325 L59.8345643,36.7387325 C58.4618346,36.7387325 57.4657835,36.4457763 56.8463811,35.8598551 C56.2269787,35.2739339 55.9172821,34.4452864 55.9172821,33.3738876 C55.9172821,32.9721131 55.9675032,32.4866428 56.0679468,31.9174622 L57.9261448,23.1286882 C58.3614005,21.1198155 59.0979761,19.629924 60.1358936,18.6589689 C61.1738112,17.6880137 62.7976256,17.2025434 65.0073855,17.2025434 L86.1506647,17.2025434 L84.7946824,23.6811254 L66.7651403,23.6811254 C66.2294409,23.6811254 65.8444128,23.7983079 65.6100443,24.0326764 C65.3756758,24.2670449 65.1915319,24.6855537 65.0576071,25.2882155 L64.1033973,29.7579349 C64.0699161,29.8918597 64.0448056,30.0090422 64.028065,30.1094858 C64.0113244,30.2099295 64.0029542,30.3103716 64.0029542,30.4108152 C64.0029542,30.9130334 64.371242,31.1641387 65.1078287,31.1641387 L78.717873,31.1641387 C80.1240838,31.1641387 81.1368753,31.4654651 81.7562777,32.0681269 C82.3756801,32.6707887 82.6853767,33.5078064 82.6853767,34.5792052 C82.6853767,35.0144609 82.6351556,35.4831909 82.534712,35.985409 L80.5760709,45.2763987 C80.1408152,47.2852714 79.4042396,48.7751629 78.366322,49.746118 C77.3284045,50.7170732 75.7213304,51.2025434 73.5450517,51.2025434 L50.0234887,51.2025434 Z" id="S" stroke="#0062A2" stroke-width="0.5" fill="#FFFFFF"></path>
    </g>
</svg>